<svg width="22" height="22" viewBox="0 0 22 22" fill="none" xmlns="http://www.w3.org/2000/svg">
<path d="M18.257 3.63143H16.0799V2.96156C16.0799 2.7839 16.0034 2.61351 15.8673 2.48789C15.7312 2.36226 15.5467 2.29169 15.3542 2.29169C15.1617 2.29169 14.9771 2.36226 14.841 2.48789C14.7049 2.61351 14.6285 2.7839 14.6285 2.96156V3.63143H7.37155V2.96156C7.37155 2.7839 7.29509 2.61351 7.159 2.48789C7.0229 2.36226 6.83832 2.29169 6.64585 2.29169C6.45339 2.29169 6.2688 2.36226 6.13271 2.48789C5.99662 2.61351 5.92016 2.7839 5.92016 2.96156V3.63143H3.74308C3.35814 3.63143 2.98898 3.77258 2.71679 4.02383C2.4446 4.27508 2.29169 4.61585 2.29169 4.97117V18.3686C2.29169 18.7239 2.4446 19.0647 2.71679 19.316C2.98898 19.5672 3.35814 19.7084 3.74308 19.7084H18.257C18.6419 19.7084 19.0111 19.5672 19.2833 19.316C19.5554 19.0647 19.7084 18.7239 19.7084 18.3686V4.97117C19.7084 4.61585 19.5554 4.27508 19.2833 4.02383C19.0111 3.77258 18.6419 3.63143 18.257 3.63143ZM5.92016 4.97117V5.64105C5.92016 5.81871 5.99662 5.98909 6.13271 6.11472C6.2688 6.24034 6.45339 6.31092 6.64585 6.31092C6.83832 6.31092 7.0229 6.24034 7.159 6.11472C7.29509 5.98909 7.37155 5.81871 7.37155 5.64105V4.97117H14.6285V5.64105C14.6285 5.81871 14.7049 5.98909 14.841 6.11472C14.9771 6.24034 15.1617 6.31092 15.3542 6.31092C15.5467 6.31092 15.7312 6.24034 15.8673 6.11472C16.0034 5.98909 16.0799 5.81871 16.0799 5.64105V4.97117H18.257V7.65066H3.74308V4.97117H5.92016ZM18.257 18.3686H3.74308V8.9904H18.257V18.3686Z" fill="#B3B3B3"/>
</svg>
