<svg width="24" height="24" viewBox="0 0 24 24" fill="none" xmlns="http://www.w3.org/2000/svg">
<path d="M22.1999 17.768L14.0019 4.09985C13.7971 3.76498 13.5046 3.48733 13.1535 3.29441C12.8025 3.10149 12.405 3 12.0005 3C11.596 3 11.1985 3.10149 10.8474 3.29441C10.4963 3.48733 10.2039 3.76498 9.99901 4.09985L1.80099 17.768C1.60388 18.0919 1.5 18.4603 1.5 18.8354C1.5 19.2105 1.60388 19.5789 1.80099 19.9028C2.00323 20.2397 2.29519 20.5188 2.64691 20.7116C2.99863 20.9044 3.39746 21.0039 3.80245 20.9999H20.1985C20.6032 21.0036 21.0016 20.904 21.353 20.7112C21.7043 20.5184 21.996 20.2394 22.1981 19.9028C22.3955 19.5791 22.4997 19.2108 22.5 18.8356C22.5003 18.4605 22.3968 18.0921 22.1999 17.768ZM20.8997 19.1819C20.8282 19.2989 20.7256 19.3956 20.6024 19.4621C20.4792 19.5285 20.3398 19.5622 20.1985 19.5599H3.80245C3.66115 19.5622 3.52175 19.5285 3.39853 19.4621C3.27531 19.3956 3.1727 19.2989 3.10124 19.1819C3.0365 19.0767 3.00235 18.9567 3.00235 18.8345C3.00235 18.7123 3.0365 18.5923 3.10124 18.4871L11.2993 4.81894C11.3722 4.70246 11.4752 4.60607 11.5984 4.53915C11.7216 4.47224 11.8608 4.43707 12.0023 4.43707C12.1439 4.43707 12.283 4.47224 12.4062 4.53915C12.5294 4.60607 12.6325 4.70246 12.7054 4.81894L20.9034 18.4871C20.9676 18.5927 21.0011 18.7128 21.0005 18.835C20.9998 18.9572 20.965 19.077 20.8997 19.1819ZM11.2505 13.8V10.2C11.2505 10.009 11.3295 9.8259 11.4702 9.69088C11.6108 9.55585 11.8016 9.48 12.0005 9.48C12.1994 9.48 12.3901 9.55585 12.5308 9.69088C12.6714 9.8259 12.7504 10.009 12.7504 10.2V13.8C12.7504 13.9909 12.6714 14.174 12.5308 14.3091C12.3901 14.4441 12.1994 14.5199 12.0005 14.5199C11.8016 14.5199 11.6108 14.4441 11.4702 14.3091C11.3295 14.174 11.2505 13.9909 11.2505 13.8ZM13.1254 17.0399C13.1254 17.2535 13.0594 17.4623 12.9358 17.6399C12.8122 17.8175 12.6365 17.956 12.431 18.0377C12.2254 18.1194 11.9992 18.1408 11.781 18.0992C11.5628 18.0575 11.3623 17.9546 11.205 17.8036C11.0477 17.6525 10.9405 17.4601 10.8971 17.2506C10.8537 17.0411 10.876 16.824 10.9612 16.6266C11.0463 16.4293 11.1905 16.2606 11.3755 16.1419C11.5605 16.0233 11.778 15.9599 12.0005 15.9599C12.2988 15.9599 12.585 16.0737 12.7959 16.2763C13.0069 16.4788 13.1254 16.7535 13.1254 17.0399Z" fill="#B3B3B3"/>
</svg>
