<svg width="40" height="40" viewBox="0 0 40 40" fill="none" xmlns="http://www.w3.org/2000/svg">
<path d="M36.8056 20C36.8056 16.6762 35.8199 13.427 33.9733 10.6633C32.1267 7.89967 29.502 5.74566 26.4312 4.47369C23.3604 3.20172 19.9814 2.86891 16.7214 3.51736C13.4615 4.1658 10.467 5.76638 8.11669 8.11668C5.76639 10.467 4.16582 13.4614 3.51737 16.7214C2.86893 19.9814 3.20173 23.3604 4.4737 26.4312C5.74568 29.502 7.89969 32.1267 10.6633 33.9733C13.427 35.8199 16.6762 36.8055 20 36.8055L20 35.4611C16.9421 35.4611 13.9528 34.5543 11.4103 32.8554C8.86771 31.1566 6.88602 28.7419 5.71581 25.9167C4.54559 23.0916 4.23941 19.9828 4.83598 16.9837C5.43255 13.9845 6.90508 11.2296 9.06736 9.06734C11.2296 6.90507 13.9845 5.43254 16.9837 4.83597C19.9829 4.2394 23.0916 4.54558 25.9167 5.71579C28.7419 6.88601 31.1566 8.8677 32.8555 11.4103C34.5543 13.9528 35.4611 16.9421 35.4611 20H36.8056Z" fill="#B3B3B3"/>
</svg>
