<svg width="24" height="24" viewBox="0 0 24 24" fill="none" xmlns="http://www.w3.org/2000/svg">
<path d="M21.2308 4H2.76923C2.56522 4 2.36956 4.07902 2.2253 4.21967C2.08104 4.36032 2 4.55109 2 4.75V17.5C2 17.8978 2.16209 18.2794 2.4506 18.5607C2.73912 18.842 3.13044 19 3.53846 19H20.4615C20.8696 19 21.2609 18.842 21.5494 18.5607C21.8379 18.2794 22 17.8978 22 17.5V4.75C22 4.55109 21.919 4.36032 21.7747 4.21967C21.6304 4.07902 21.4348 4 21.2308 4ZM12 11.9828L4.74712 5.5H19.2529L12 11.9828ZM9.18365 11.5L3.53846 16.5447V6.45531L9.18365 11.5ZM10.3221 12.5172L11.476 13.5531C11.6179 13.6801 11.8035 13.7506 11.9962 13.7506C12.1888 13.7506 12.3744 13.6801 12.5163 13.5531L13.6702 12.5172L19.2471 17.5H4.74712L10.3221 12.5172ZM14.8163 11.5L20.4615 6.45438V16.5456L14.8163 11.5Z" fill="#B3B3B3"/>
</svg>
