<svg width="24" height="24" viewBox="0 0 24 24" fill="none" xmlns="http://www.w3.org/2000/svg">
<path d="M21.8675 11.4064C19.6931 6.81212 16.4062 4.5 12 4.5C7.59148 4.5 4.30689 6.81212 2.13245 11.4087C2.04523 11.594 2 11.7963 2 12.0012C2 12.206 2.04523 12.4083 2.13245 12.5936C4.30689 17.1879 7.59378 19.5 12 19.5C16.4085 19.5 19.6931 17.1879 21.8675 12.5913C22.0442 12.2186 22.0442 11.786 21.8675 11.4064ZM12 17.8436C8.30024 17.8436 5.59137 15.9617 3.68071 12C5.59137 8.03834 8.30024 6.15644 12 6.15644C15.6997 6.15644 18.4086 8.03834 20.3193 12C18.4109 15.9617 15.702 17.8436 12 17.8436ZM11.9082 7.95092C9.67876 7.95092 7.87132 9.7638 7.87132 12C7.87132 14.2362 9.67876 16.0491 11.9082 16.0491C14.1377 16.0491 15.9452 14.2362 15.9452 12C15.9452 9.7638 14.1377 7.95092 11.9082 7.95092ZM11.9082 14.5767C10.4884 14.5767 9.33929 13.4241 9.33929 12C9.33929 10.5759 10.4884 9.42331 11.9082 9.42331C13.3281 9.42331 14.4772 10.5759 14.4772 12C14.4772 13.4241 13.3281 14.5767 11.9082 14.5767Z" fill="#B3B3B3"/>
</svg>
