<svg width="24" height="24" viewBox="0 0 24 24" fill="none" xmlns="http://www.w3.org/2000/svg">
<path d="M20.2938 17.6894C19.8423 16.679 19.1871 15.7612 18.3646 14.9872C17.5446 14.2109 16.5733 13.592 15.5042 13.1646C15.4947 13.1601 15.4851 13.1578 15.4755 13.1533C16.9667 12.1357 17.9361 10.4781 17.9361 8.60804C17.9361 5.51005 15.2792 3 12 3C8.72077 3 6.06387 5.51005 6.06387 8.60804C6.06387 10.4781 7.03328 12.1357 8.52449 13.1555C8.51492 13.16 8.50534 13.1623 8.49577 13.1668C7.42343 13.5942 6.46121 14.207 5.63541 14.9894C4.81371 15.7641 4.15857 16.6817 3.70617 17.6917C3.26173 18.6805 3.02204 19.7406 3.00006 20.8146C2.99942 20.8387 3.0039 20.8627 3.01324 20.8852C3.02258 20.9077 3.03658 20.9281 3.05442 20.9454C3.07227 20.9627 3.0936 20.9764 3.11715 20.9858C3.1407 20.9952 3.16599 21 3.19155 21H4.62771C4.73303 21 4.8168 20.9209 4.8192 20.8236C4.86707 19.0779 5.60908 17.443 6.92078 16.2038C8.27795 14.9216 10.0803 14.2161 12 14.2161C13.9197 14.2161 15.722 14.9216 17.0792 16.2038C18.3909 17.443 19.1329 19.0779 19.1808 20.8236C19.1832 20.9231 19.267 21 19.3723 21H20.8085C20.834 21 20.8593 20.9952 20.8829 20.9858C20.9064 20.9764 20.9277 20.9627 20.9456 20.9454C20.9634 20.9281 20.9774 20.9077 20.9868 20.8852C20.9961 20.8627 21.0006 20.8387 20.9999 20.8146C20.976 19.7337 20.739 18.6822 20.2938 17.6894ZM12 12.4975C10.9013 12.4975 9.8673 12.0927 9.08938 11.3578C8.31146 10.6229 7.88301 9.64598 7.88301 8.60804C7.88301 7.5701 8.31146 6.59322 9.08938 5.85829C9.8673 5.12337 10.9013 4.71859 12 4.71859C13.0987 4.71859 14.1327 5.12337 14.9106 5.85829C15.6885 6.59322 16.117 7.5701 16.117 8.60804C16.117 9.64598 15.6885 10.6229 14.9106 11.3578C14.1327 12.0927 13.0987 12.4975 12 12.4975Z" fill="#B3B3B3"/>
</svg>
