<svg width="75" height="79" viewBox="0 0 75 79" fill="none" xmlns="http://www.w3.org/2000/svg">
<path fill-rule="evenodd" clip-rule="evenodd" d="M60.1215 47.1063C60.1215 53.5944 54.7579 58.854 48.1416 58.854C41.5253 58.854 36.1617 53.5944 36.1617 47.1063C36.1617 40.6183 41.5253 35.3586 48.1416 35.3586C54.7579 35.3586 60.1215 40.6183 60.1215 47.1063ZM7.80914 29.2822C8.66174 28.9615 9.11357 28.6651 9.80579 28.0669C9.80579 28.0669 11.0038 27.2567 11.8024 25.2313C12.1316 24.3965 12.3794 23.6977 12.6184 23.0234C12.9594 22.0616 13.2827 21.1498 13.7991 19.9651C14.6452 18.0239 16.1951 15.1039 16.1951 15.1039C16.1951 15.1039 17.8673 12.1462 19.3897 10.6479C21.004 9.05924 22.1623 8.41166 24.1817 7.40717C25.8206 6.59196 28.5743 5.7868 28.5743 5.7868C28.5743 5.7868 30.7415 5.1566 32.1683 4.97662C33.8254 4.76757 34.8536 4.83632 36.3828 4.93857C36.5674 4.95091 36.7592 4.96373 36.9602 4.97662C38.3696 5.06691 39.1618 5.143 40.5542 5.38171C42.4562 5.70778 43.5302 5.93706 45.3462 6.59699C46.4643 7.00331 48.1415 7.81227 48.1415 7.81227C48.1415 7.81227 50.8984 9.15847 52.5341 10.2428C55.4938 12.2048 58.8124 15.5558 59.3227 16.3192C59.4383 16.492 59.5461 16.6463 59.6477 16.7915C59.9948 17.2878 60.2682 17.6786 60.5207 18.3447C60.7515 18.9535 60.9201 19.9651 60.9201 19.9651C60.9201 19.9651 61.1245 21.2272 60.9201 21.9905C60.4209 23.854 59.1042 24.8262 57.3261 24.8262H49.7388C45.3462 24.8262 41.3826 25.2908 38.1582 26.0414C33.639 27.0935 29.2567 29.0043 26.977 30.0924C24.8935 31.0868 23.7391 31.6915 21.7857 32.928C20.1707 33.9503 19.3082 34.5955 17.7924 35.7637C14.8018 38.0685 13.3998 39.4095 10.6045 42.2452C7.80914 45.0808 3.81584 51.5623 3.81584 51.5623L0.621198 57.6387C0.934471 58.0488 1.34662 58.6492 1.84177 59.3706C3.26843 61.449 5.38413 64.5313 7.80915 66.9558C11.0758 70.2219 15.0735 72.7811 17.2719 73.8218C22.802 76.4398 23.6702 76.6583 27.5418 77.6328C27.8637 77.7138 28.2064 77.8 28.5743 77.8933C33.3663 79.1086 39.894 78.1686 41.7522 77.8933C43.3259 77.6602 44.2072 77.4926 45.7455 77.0832C47.9879 76.4862 49.2181 76.0139 51.3361 75.0577C53.4397 74.1079 54.5896 73.4836 56.5274 72.222C58.68 70.8207 61.7187 68.1711 61.7187 68.1711C61.7187 68.1711 65.3127 64.9304 68.108 60.8795C70.9033 56.8285 72.7366 51.8183 73.2993 49.5368C73.7218 47.824 73.8476 46.7704 74.0432 45.133C74.0608 44.9856 74.079 44.8335 74.098 44.6757L74.1224 44.473V44.473C74.3732 42.3932 74.5224 41.1557 74.4973 39.0044C74.4751 37.0996 74.3475 36.0314 74.098 34.1433L74.0776 33.9889L74.0775 33.9888C73.8586 32.3306 73.7287 31.3472 73.2993 29.6873C72.9876 28.4824 72.7168 27.7375 72.3443 26.7128C72.268 26.5029 72.1874 26.2812 72.1013 26.0414C71.9981 25.7541 71.9044 25.4886 71.8158 25.2376C71.4108 24.0902 71.1124 23.2449 70.504 21.9905C69.701 20.3352 69.1437 19.4561 68.108 17.9396C66.8457 16.0914 66.0106 15.1421 64.514 13.4836C63.3227 12.1633 61.3194 10.2428 61.3194 10.2428C61.3194 10.2428 58.9234 8.21734 56.9268 7.00208C54.9301 5.78682 50.8445 3.79602 49.7388 3.35625L49.6767 3.33156C47.8787 2.61638 46.8417 2.20395 44.9468 1.73587C43.3305 1.33662 42.261 1.21449 40.828 1.05086C40.4941 1.01274 40.1404 0.972354 39.7555 0.925689C39.4989 0.894575 39.2592 0.864788 39.0312 0.836466C37.7398 0.676024 36.8264 0.562533 35.3629 0.520596C32.8639 0.448982 31.4475 0.559395 28.9736 0.925689C27.3999 1.1587 26.5182 1.32476 24.9803 1.73587C22.4035 2.42474 21.0006 3.01184 18.5911 4.16643C16.3174 5.25593 15.0816 5.97545 13.0004 7.40717C11.7098 8.29509 10.9884 8.80646 9.80579 9.83773C8.46785 11.0045 6.61115 13.0785 6.61115 13.0785C6.61115 13.0785 1.8192 18.3447 0.621167 22.3956C0.348582 23.3173 0.621176 26.0414 0.621176 26.0414C0.621176 26.0414 0.998216 27.0983 1.41984 27.6618C2.95456 29.7132 5.42885 30.1775 7.80914 29.2822Z" fill="#EEEEEF"/>
<path d="M9.80579 28.0669L9.52569 27.6527L9.50122 27.6693L9.47887 27.6886L9.80579 28.0669ZM7.80914 29.2822L7.63311 28.8142V28.8142L7.80914 29.2822ZM11.8024 25.2313L12.2676 25.4147V25.4147L11.8024 25.2313ZM12.6184 23.0234L12.1472 22.8563V22.8563L12.6184 23.0234ZM13.7991 19.9651L13.3407 19.7653V19.7653L13.7991 19.9651ZM16.1951 15.1039L15.7597 14.8578L15.7534 14.8695L16.1951 15.1039ZM19.3897 10.6479L19.7404 11.0043V11.0043L19.3897 10.6479ZM24.1817 7.40717L23.959 6.9595V6.9595L24.1817 7.40717ZM28.5743 5.7868L28.4347 5.30669L28.434 5.3069L28.5743 5.7868ZM32.1683 4.97662L32.2309 5.47269V5.47269L32.1683 4.97662ZM36.3828 4.93857L36.3495 5.43746V5.43746L36.3828 4.93857ZM36.9602 4.97662L36.9283 5.47559H36.9283L36.9602 4.97662ZM40.5542 5.38171L40.4697 5.87452V5.87452L40.5542 5.38171ZM45.3462 6.59699L45.1754 7.06692V7.06692L45.3462 6.59699ZM48.1415 7.81227L48.3609 7.36297L48.3587 7.36191L48.1415 7.81227ZM52.5341 10.2428L52.8104 9.82608V9.82608L52.5341 10.2428ZM59.3227 16.3192L59.7384 16.0413L59.7384 16.0413L59.3227 16.3192ZM59.6477 16.7915L60.0574 16.5049L60.0574 16.5049L59.6477 16.7915ZM60.5207 18.3447L60.9883 18.1674V18.1674L60.5207 18.3447ZM60.9201 19.9651L61.4136 19.8851L61.4133 19.8829L60.9201 19.9651ZM60.9201 21.9905L61.403 22.1199V22.1199L60.9201 21.9905ZM38.1582 26.0414L38.2716 26.5284V26.5284L38.1582 26.0414ZM26.977 30.0924L27.1924 30.5436V30.5436L26.977 30.0924ZM21.7857 32.928L22.0531 33.3505H22.0531L21.7857 32.928ZM17.7924 35.7637L17.4872 35.3676V35.3676L17.7924 35.7637ZM10.6045 42.2452L10.2484 41.8941V41.8941L10.6045 42.2452ZM3.81584 51.5623L3.39015 51.3L3.38121 51.3145L3.37328 51.3296L3.81584 51.5623ZM0.621198 57.6387L0.178635 57.406L0.030084 57.6886L0.223879 57.9422L0.621198 57.6387ZM1.84177 59.3706L1.42954 59.6535H1.42954L1.84177 59.3706ZM7.80915 66.9558L8.16266 66.6023H8.16266L7.80915 66.9558ZM17.2719 73.8218L17.4858 73.3699V73.3699L17.2719 73.8218ZM27.5418 77.6328L27.6638 77.1479H27.6638L27.5418 77.6328ZM28.5743 77.8933L28.4514 78.378H28.4514L28.5743 77.8933ZM41.7522 77.8933L41.8255 78.3879V78.3879L41.7522 77.8933ZM45.7455 77.0832L45.8741 77.5663V77.5663L45.7455 77.0832ZM51.3361 75.0577L51.5419 75.5134V75.5134L51.3361 75.0577ZM56.5274 72.222L56.8002 72.6411V72.6411L56.5274 72.222ZM61.7187 68.1711L62.0474 68.548L62.0535 68.5424L61.7187 68.1711ZM68.108 60.8795L68.5195 61.1634V61.1634L68.108 60.8795ZM73.2993 49.5368L73.7847 49.6566V49.6566L73.2993 49.5368ZM74.0432 45.133L74.5397 45.1923L74.5397 45.1923L74.0432 45.133ZM74.098 44.6757L73.6015 44.6159L73.6015 44.6159L74.098 44.6757ZM74.1224 44.473L74.6188 44.5329L74.6224 44.5031V44.473H74.1224ZM74.1224 44.473L73.626 44.4131L73.6224 44.4429V44.473H74.1224ZM74.4973 39.0044L73.9973 39.0103V39.0103L74.4973 39.0044ZM74.098 34.1433L73.6023 34.2088L73.6023 34.2088L74.098 34.1433ZM74.0776 33.9889L74.5732 33.9234L74.5704 33.9017L74.5656 33.8804L74.0776 33.9889ZM74.0775 33.9888L73.5818 34.0542L73.5847 34.0759L73.5894 34.0972L74.0775 33.9888ZM73.2993 29.6873L73.7834 29.5621V29.5621L73.2993 29.6873ZM72.3443 26.7128L72.8142 26.542V26.542L72.3443 26.7128ZM72.1013 26.0414L72.5719 25.8725V25.8725L72.1013 26.0414ZM71.8158 25.2376L71.3443 25.404V25.404L71.8158 25.2376ZM70.504 21.9905L70.9538 21.7723V21.7723L70.504 21.9905ZM68.108 17.9396L68.5209 17.6576L68.5209 17.6576L68.108 17.9396ZM64.514 13.4836L64.8852 13.1486V13.1486L64.514 13.4836ZM61.3194 10.2428L61.6654 9.88189L61.6541 9.87107L61.6422 9.86098L61.3194 10.2428ZM56.9268 7.00208L56.6668 7.42919V7.42919L56.9268 7.00208ZM49.7388 3.35625L49.9236 2.89164L49.9236 2.89164L49.7388 3.35625ZM49.6767 3.33156L49.4919 3.79616L49.492 3.79617L49.6767 3.33156ZM44.9468 1.73587L44.8269 2.22128V2.22128L44.9468 1.73587ZM40.828 1.05086L40.8847 0.554092V0.554091L40.828 1.05086ZM39.7555 0.925689L39.6954 1.42205V1.42205L39.7555 0.925689ZM39.0312 0.836466L39.0929 0.34028V0.34028L39.0312 0.836466ZM35.3629 0.520596L35.3486 1.02039L35.3629 0.520596ZM28.9736 0.925689L28.9004 0.431081V0.431081L28.9736 0.925689ZM24.9803 1.73587L24.8512 1.25284V1.25284L24.9803 1.73587ZM18.5911 4.16643L18.8071 4.61734V4.61734L18.5911 4.16643ZM13.0004 7.40717L13.2838 7.81911V7.81911L13.0004 7.40717ZM9.80579 9.83773L9.47717 9.46089H9.47717L9.80579 9.83773ZM6.61115 13.0785L6.98098 13.415L6.98368 13.412L6.61115 13.0785ZM0.621167 22.3956L0.141696 22.2538H0.141696L0.621167 22.3956ZM0.621176 26.0414L0.123661 26.0912L0.129739 26.152L0.15025 26.2095L0.621176 26.0414ZM1.41984 27.6618L1.01948 27.9613L1.41984 27.6618ZM48.1416 59.354C55.0248 59.354 60.6215 53.8797 60.6215 47.1063H59.6215C59.6215 53.3091 54.4911 58.354 48.1416 58.354V59.354ZM35.6617 47.1063C35.6617 53.8797 41.2584 59.354 48.1416 59.354V58.354C41.7922 58.354 36.6617 53.3091 36.6617 47.1063H35.6617ZM48.1416 34.8586C41.2584 34.8586 35.6617 40.3329 35.6617 47.1063H36.6617C36.6617 40.9036 41.7922 35.8586 48.1416 35.8586V34.8586ZM60.6215 47.1063C60.6215 40.3329 55.0248 34.8586 48.1416 34.8586V35.8586C54.4911 35.8586 59.6215 40.9036 59.6215 47.1063H60.6215ZM9.47887 27.6886C8.8222 28.2561 8.42032 28.5181 7.63311 28.8142L7.98517 29.7502C8.90317 29.4049 9.40495 29.0741 10.1327 28.4452L9.47887 27.6886ZM11.3373 25.0479C10.9613 26.0014 10.4943 26.6617 10.1286 27.0791C9.94551 27.288 9.78761 27.4363 9.67894 27.53C9.62462 27.5768 9.58265 27.61 9.55608 27.6302C9.54279 27.6403 9.53336 27.6472 9.52817 27.6509C9.52557 27.6528 9.52403 27.6539 9.5236 27.6542C9.52339 27.6543 9.52345 27.6543 9.5238 27.654C9.52397 27.6539 9.52421 27.6537 9.52453 27.6535C9.52469 27.6534 9.52486 27.6533 9.52505 27.6532C9.52515 27.6531 9.52531 27.653 9.52536 27.653C9.52552 27.6528 9.52569 27.6527 9.80579 28.0669C10.0859 28.4811 10.0861 28.481 10.0863 28.4808C10.0863 28.4808 10.0865 28.4807 10.0866 28.4806C10.0869 28.4804 10.0872 28.4802 10.0875 28.48C10.0881 28.4796 10.0888 28.4791 10.0895 28.4786C10.091 28.4776 10.0928 28.4763 10.0949 28.4749C10.0991 28.472 10.1043 28.4683 10.1107 28.4637C10.1235 28.4546 10.1405 28.4421 10.1616 28.4261C10.2036 28.3941 10.2615 28.3481 10.332 28.2873C10.4729 28.1658 10.6644 27.985 10.8807 27.7382C11.3136 27.2441 11.8449 26.4866 12.2676 25.4147L11.3373 25.0479ZM12.1472 22.8563C11.9081 23.5307 11.6629 24.2221 11.3373 25.0479L12.2676 25.4147C12.6003 24.5709 12.8507 23.8646 13.0897 23.1905L12.1472 22.8563ZM13.3407 19.7653C12.8167 20.9675 12.4884 21.8938 12.1472 22.8563L13.0897 23.1905C13.4304 22.2293 13.7487 21.332 14.2574 20.1648L13.3407 19.7653ZM16.1951 15.1039C15.7534 14.8695 15.7534 14.8695 15.7534 14.8696C15.7534 14.8696 15.7534 14.8696 15.7533 14.8697C15.7533 14.8698 15.7532 14.8699 15.7531 14.8701C15.7529 14.8705 15.7526 14.8711 15.7522 14.8718C15.7514 14.8733 15.7503 14.8755 15.7488 14.8783C15.7458 14.884 15.7413 14.8924 15.7354 14.9035C15.7238 14.9256 15.7066 14.9582 15.6844 15.0003C15.6401 15.0844 15.5759 15.2067 15.4963 15.3594C15.3371 15.6647 15.1161 16.0921 14.8684 16.5804C14.3744 17.5547 13.7699 18.7807 13.3407 19.7653L14.2574 20.1648C14.6744 19.2083 15.2679 18.0037 15.7603 17.0327C16.0059 16.5484 16.2252 16.1245 16.383 15.8217C16.462 15.6703 16.5255 15.5492 16.5693 15.4661C16.5911 15.4246 16.608 15.3925 16.6195 15.3709C16.6252 15.3601 16.6295 15.3519 16.6324 15.3464C16.6339 15.3437 16.635 15.3417 16.6357 15.3403C16.636 15.3396 16.6363 15.3391 16.6365 15.3388C16.6366 15.3386 16.6366 15.3385 16.6367 15.3385C16.6367 15.3384 16.6367 15.3384 16.6367 15.3384C16.6367 15.3384 16.6367 15.3384 16.1951 15.1039ZM19.039 10.2915C18.2378 11.08 17.4152 12.2316 16.8035 13.1634C16.4948 13.6336 16.2346 14.056 16.0515 14.361C15.9599 14.5136 15.8874 14.637 15.8376 14.7227C15.8127 14.7655 15.7935 14.7989 15.7804 14.8218C15.7738 14.8333 15.7688 14.8421 15.7653 14.8481C15.7636 14.8512 15.7623 14.8535 15.7614 14.8551C15.7609 14.8559 15.7605 14.8566 15.7603 14.857C15.7602 14.8573 15.7601 14.8574 15.76 14.8576C15.7599 14.8576 15.7599 14.8577 15.7599 14.8578C15.7598 14.8578 15.7598 14.8579 16.1951 15.1039C16.6303 15.35 16.6303 15.35 16.6303 15.3501C16.6303 15.35 16.6303 15.3501 16.6303 15.35C16.6303 15.35 16.6304 15.3499 16.6305 15.3498C16.6306 15.3495 16.6309 15.3491 16.6312 15.3485C16.6319 15.3472 16.633 15.3453 16.6345 15.3427C16.6375 15.3375 16.642 15.3295 16.6481 15.3189C16.6602 15.2977 16.6784 15.2661 16.7022 15.2251C16.7498 15.1432 16.8199 15.0239 16.9088 14.8758C17.0868 14.5794 17.3398 14.1687 17.6395 13.7122C18.2445 12.7905 19.0192 11.7141 19.7404 11.0043L19.039 10.2915ZM23.959 6.9595C21.9201 7.97369 20.7079 8.64908 19.039 10.2915L19.7404 11.0043C21.3001 9.4694 22.4044 8.84963 24.4044 7.85485L23.959 6.9595ZM28.5743 5.7868C28.434 5.3069 28.4339 5.30691 28.4339 5.30692C28.4339 5.30693 28.4338 5.30695 28.4338 5.30696C28.4336 5.307 28.4335 5.30705 28.4333 5.30711C28.4329 5.30722 28.4323 5.30739 28.4316 5.30761C28.4301 5.30804 28.428 5.30867 28.4252 5.30948C28.4196 5.31112 28.4115 5.31352 28.4009 5.31666C28.3797 5.32293 28.3487 5.33217 28.3088 5.34418C28.2289 5.36819 28.1135 5.40328 27.97 5.44789C27.6831 5.53708 27.2835 5.66454 26.8319 5.81781C25.9347 6.12233 24.81 6.53618 23.959 6.9595L24.4044 7.85485C25.1922 7.46296 26.2639 7.06662 27.1533 6.76476C27.595 6.61484 27.9862 6.49006 28.2669 6.40281C28.4071 6.3592 28.5196 6.32501 28.5968 6.30181C28.6354 6.2902 28.6651 6.28135 28.6851 6.27543C28.695 6.27248 28.7026 6.27025 28.7075 6.26879C28.71 6.26806 28.7119 6.26752 28.713 6.26717C28.7136 6.267 28.7141 6.26687 28.7143 6.2668C28.7145 6.26676 28.7146 6.26673 28.7146 6.26672C28.7146 6.26671 28.7146 6.26671 28.7146 6.2667C28.7146 6.26671 28.7146 6.26671 28.5743 5.7868ZM32.1057 4.48055C31.3612 4.57447 30.4386 4.7832 29.715 4.96414C29.3504 5.05529 29.0311 5.1407 28.8029 5.20336C28.6887 5.2347 28.5971 5.2604 28.5339 5.27832C28.5023 5.28728 28.4777 5.2943 28.4609 5.29912C28.4526 5.30152 28.4461 5.30338 28.4417 5.30466C28.4395 5.30529 28.4378 5.30578 28.4366 5.30612C28.4361 5.30629 28.4356 5.30643 28.4353 5.30652C28.4351 5.30657 28.435 5.30661 28.4349 5.30663C28.4348 5.30665 28.4348 5.30666 28.4348 5.30667C28.4347 5.30668 28.4347 5.30669 28.5743 5.7868C28.7139 6.26692 28.7139 6.26692 28.7139 6.26692C28.7139 6.26692 28.7139 6.26692 28.7139 6.26691C28.714 6.2669 28.714 6.26688 28.7141 6.26686C28.7143 6.2668 28.7147 6.2667 28.7151 6.26657C28.716 6.2663 28.7175 6.26589 28.7194 6.26532C28.7233 6.2642 28.7292 6.2625 28.737 6.26025C28.7527 6.25574 28.7761 6.24905 28.8065 6.24043C28.8674 6.22318 28.9563 6.19823 29.0676 6.16768C29.2903 6.10656 29.602 6.02317 29.9575 5.93427C30.6741 5.75511 31.5486 5.55875 32.2309 5.47269L32.1057 4.48055ZM36.4162 4.43969C34.8828 4.33716 33.8138 4.26508 32.1057 4.48055L32.2309 5.47269C33.837 5.27007 34.8244 5.33549 36.3495 5.43746L36.4162 4.43969ZM36.9922 4.47764C36.7919 4.46481 36.6008 4.45203 36.4162 4.43969L36.3495 5.43746C36.5339 5.44979 36.7264 5.46266 36.9283 5.47559L36.9922 4.47764ZM40.6387 4.8889C39.2242 4.64641 38.4137 4.56872 36.9922 4.47764L36.9283 5.47559C38.3255 5.56511 39.0993 5.63959 40.4697 5.87452L40.6387 4.8889ZM45.5169 6.12706C43.6629 5.45329 42.5572 5.21781 40.6387 4.8889L40.4697 5.87452C42.3552 6.19775 43.3975 6.42083 45.1754 7.06692L45.5169 6.12706ZM48.1415 7.81227C48.3587 7.36191 48.3587 7.3619 48.3586 7.36189C48.3586 7.36188 48.3586 7.36187 48.3586 7.36185C48.3585 7.36182 48.3584 7.36177 48.3583 7.36171C48.358 7.3616 48.3577 7.36143 48.3572 7.36122C48.3564 7.36079 48.3551 7.36017 48.3534 7.35936C48.35 7.35774 48.3451 7.35537 48.3386 7.35228C48.3258 7.34609 48.3068 7.33704 48.2825 7.32541C48.2337 7.30216 48.163 7.26859 48.0748 7.22708C47.8984 7.1441 47.6515 7.02922 47.3693 6.90148C46.8081 6.64748 46.0948 6.33707 45.5169 6.12706L45.1754 7.06692C45.7156 7.26323 46.4 7.56045 46.9569 7.81251C47.2338 7.9378 47.4761 8.05056 47.6491 8.13196C47.7356 8.17264 47.8047 8.20545 47.852 8.22802C47.8757 8.2393 47.8939 8.24802 47.9061 8.25389C47.9122 8.25682 47.9168 8.25904 47.9199 8.26051C47.9214 8.26124 47.9225 8.26179 47.9233 8.26214C47.9236 8.26232 47.9239 8.26245 47.9241 8.26253C47.9242 8.26257 47.9242 8.2626 47.9242 8.26261C47.9243 8.26262 47.9243 8.26262 47.9243 8.26262C47.9243 8.26262 47.9243 8.26262 48.1415 7.81227ZM52.8104 9.82608C51.9708 9.26949 50.8544 8.65234 49.9579 8.17881C49.5077 7.94095 49.109 7.7373 48.8228 7.59306C48.6797 7.52092 48.5646 7.46358 48.4851 7.42419C48.4453 7.4045 48.4145 7.38929 48.3935 7.37895C48.3829 7.37379 48.3749 7.36984 48.3694 7.36716C48.3667 7.36582 48.3646 7.3648 48.3632 7.3641C48.3625 7.36375 48.3619 7.36348 48.3615 7.36329C48.3613 7.36319 48.3612 7.36312 48.3611 7.36307C48.361 7.36304 48.361 7.36302 48.3609 7.363C48.3609 7.36298 48.3609 7.36297 48.1415 7.81227C47.9221 8.26156 47.9221 8.26156 47.9221 8.26156C47.9221 8.26157 47.9221 8.26157 47.9221 8.26159C47.9222 8.26162 47.9223 8.26167 47.9224 8.26174C47.9227 8.26188 47.9232 8.2621 47.9238 8.2624C47.925 8.263 47.9269 8.26393 47.9294 8.26517C47.9345 8.26765 47.9421 8.27139 47.9522 8.27635C47.9724 8.28626 48.0024 8.30103 48.0412 8.32026C48.1188 8.35873 48.2319 8.41504 48.3728 8.48605C48.6546 8.62811 49.0474 8.82878 49.4909 9.06302C50.3818 9.53368 51.4617 10.1318 52.2579 10.6596L52.8104 9.82608ZM59.7384 16.0413C59.5842 15.8106 59.2532 15.43 58.8256 14.9794C58.3887 14.5191 57.8262 13.9602 57.188 13.3649C55.9142 12.1768 54.3221 10.8283 52.8104 9.82608L52.2579 10.6596C53.7058 11.6194 55.2528 12.9274 56.5059 14.0961C57.131 14.6792 57.6789 15.2238 58.1002 15.6678C58.5309 16.1216 58.8061 16.4461 58.9071 16.5971L59.7384 16.0413ZM60.0574 16.5049C59.9556 16.3594 59.8506 16.2092 59.7384 16.0413L58.9071 16.5971C59.0259 16.7749 59.1366 16.9332 59.238 17.078L60.0574 16.5049ZM60.9883 18.1674C60.712 17.4389 60.4071 17.0048 60.0574 16.5049L59.238 17.078C59.5826 17.5708 59.8243 17.9183 60.0532 18.5219L60.9883 18.1674ZM60.9201 19.9651C61.4133 19.8829 61.4133 19.8829 61.4132 19.8828C61.4132 19.8828 61.4132 19.8828 61.4132 19.8827C61.4132 19.8827 61.4132 19.8826 61.4132 19.8825C61.4132 19.8823 61.4131 19.882 61.4131 19.8817C61.4129 19.881 61.4128 19.8801 61.4126 19.879C61.4122 19.8767 61.4117 19.8735 61.411 19.8694C61.4096 19.8611 61.4075 19.8492 61.4049 19.834C61.3995 19.8037 61.3917 19.7601 61.3817 19.7061C61.3616 19.5982 61.3324 19.4479 61.2957 19.2777C61.2238 18.9443 61.1176 18.5087 60.9883 18.1674L60.0532 18.5219C60.1546 18.7895 60.2482 19.164 60.3182 19.4886C60.3525 19.6474 60.3798 19.7881 60.3985 19.8889C60.4079 19.9392 60.4151 19.9794 60.4199 20.0068C60.4223 20.0204 60.4241 20.0308 60.4252 20.0377C60.4258 20.0411 60.4263 20.0437 60.4265 20.0453C60.4267 20.0461 60.4268 20.0466 60.4268 20.047C60.4268 20.0471 60.4269 20.0472 60.4269 20.0473C60.4269 20.0473 60.4269 20.0473 60.4269 20.0473C60.4269 20.0473 60.4269 20.0473 60.4269 20.0473C60.4269 20.0472 60.4269 20.0472 60.9201 19.9651ZM61.403 22.1199C61.5275 21.6552 61.5219 21.08 61.4958 20.6605C61.4822 20.4428 61.462 20.251 61.4451 20.1133C61.4366 20.0443 61.429 19.9885 61.4233 19.9494C61.4205 19.9298 61.4182 19.9144 61.4165 19.9036C61.4157 19.8981 61.415 19.8938 61.4145 19.8907C61.4143 19.8892 61.4141 19.8879 61.4139 19.887C61.4139 19.8865 61.4138 19.8861 61.4137 19.8858C61.4137 19.8857 61.4137 19.8855 61.4137 19.8854C61.4137 19.8853 61.4136 19.8853 61.4136 19.8852C61.4136 19.8852 61.4136 19.8851 60.9201 19.9651C60.4265 20.045 60.4265 20.045 60.4265 20.0449C60.4265 20.0449 60.4265 20.0448 60.4265 20.0448C60.4265 20.0448 60.4264 20.0448 60.4264 20.0448C60.4264 20.0447 60.4265 20.0448 60.4265 20.0449C60.4265 20.0452 60.4266 20.0458 60.4268 20.0467C60.427 20.0484 60.4275 20.0513 60.4281 20.0553C60.4293 20.0633 60.4312 20.0757 60.4336 20.0921C60.4383 20.125 60.445 20.1738 60.4525 20.2351C60.4676 20.3579 60.4857 20.5293 60.4977 20.7226C60.5227 21.125 60.5171 21.5626 60.4371 21.8611L61.403 22.1199ZM57.3261 25.3262C58.3084 25.3262 59.1945 25.0563 59.909 24.5023C60.6233 23.9484 61.1302 23.1384 61.403 22.1199L60.4371 21.8611C60.2107 22.7061 59.8096 23.3139 59.2963 23.712C58.7831 24.1099 58.1219 24.3262 57.3261 24.3262V25.3262ZM49.7388 25.3262H57.3261V24.3262H49.7388V25.3262ZM38.2716 26.5284C41.4545 25.7874 45.3797 25.3262 49.7388 25.3262V24.3262C45.3127 24.3262 41.3106 24.7942 38.0449 25.5545L38.2716 26.5284ZM27.1924 30.5436C29.4592 29.4617 33.8039 27.5685 38.2716 26.5284L38.0449 25.5545C33.4742 26.6186 29.0542 28.5469 26.7616 29.6411L27.1924 30.5436ZM22.0531 33.3505C23.9856 32.1273 25.1216 31.532 27.1924 30.5436L26.7616 29.6411C24.6654 30.6417 23.4927 31.2557 21.5183 32.5056L22.0531 33.3505ZM18.0976 36.1597C19.608 34.9957 20.4568 34.361 22.0531 33.3505L21.5183 32.5056C19.8846 33.5396 19.0083 34.1953 17.4872 35.3676L18.0976 36.1597ZM10.9605 42.5962C13.7472 39.7693 15.1317 38.4455 18.0976 36.1597L17.4872 35.3676C14.472 37.6914 13.0523 39.0498 10.2484 41.8941L10.9605 42.5962ZM3.81584 51.5623C4.24153 51.8246 4.24153 51.8246 4.24155 51.8245C4.24157 51.8245 4.2416 51.8245 4.24165 51.8244C4.24175 51.8242 4.24192 51.8239 4.24214 51.8236C4.24258 51.8229 4.24327 51.8218 4.24419 51.8203C4.24604 51.8173 4.24884 51.8127 4.25258 51.8067C4.26005 51.7946 4.27126 51.7765 4.28605 51.7527C4.31562 51.7051 4.35951 51.6347 4.41644 51.544C4.53031 51.3624 4.69633 51.0996 4.90437 50.7752C5.32055 50.1261 5.90437 49.2315 6.57489 48.249C7.92262 46.2741 9.59769 43.9787 10.9605 42.5962L10.2484 41.8941C8.8159 43.3473 7.09667 45.7104 5.74891 47.6853C5.0717 48.6776 4.48249 49.5805 4.06257 50.2354C3.85256 50.5629 3.68476 50.8285 3.56933 51.0126C3.51161 51.1046 3.46697 51.1762 3.43669 51.2249C3.42155 51.2493 3.40999 51.2679 3.40218 51.2806C3.39828 51.2869 3.39531 51.2917 3.3933 51.2949C3.39229 51.2966 3.39152 51.2978 3.391 51.2987C3.39073 51.2991 3.39053 51.2994 3.39039 51.2996C3.39032 51.2998 3.39026 51.2999 3.39022 51.2999C3.39018 51.3 3.39015 51.3 3.81584 51.5623ZM1.06376 57.8714L4.2584 51.795L3.37328 51.3296L0.178635 57.406L1.06376 57.8714ZM2.254 59.0876C1.76212 58.371 1.34141 57.7578 1.01852 57.3352L0.223879 57.9422C0.527537 58.3397 0.931117 58.9274 1.42954 59.6535L2.254 59.0876ZM8.16266 66.6023C5.77547 64.2155 3.68455 61.1717 2.254 59.0876L1.42954 59.6535C2.8523 61.7263 4.99279 64.8471 7.45563 67.3094L8.16266 66.6023ZM17.4858 73.3699C15.3375 72.3529 11.3874 69.8264 8.16266 66.6023L7.45563 67.3094C10.7642 70.6173 14.8095 73.2093 17.0579 74.2737L17.4858 73.3699ZM27.6638 77.1479C25.724 76.6596 24.5635 76.3671 23.1989 75.8734C21.8311 75.3786 20.2505 74.6787 17.4858 73.3699L17.0579 74.2737C19.8234 75.5829 21.4419 76.3012 22.8587 76.8138C24.2786 77.3274 25.488 77.6314 27.4198 78.1176L27.6638 77.1479ZM28.6972 77.4087C28.3289 77.3153 27.9857 77.2289 27.6638 77.1479L27.4198 78.1176C27.7417 78.1987 28.084 78.2848 28.4514 78.378L28.6972 77.4087ZM41.6789 77.3987C39.8039 77.6765 33.3763 78.5953 28.6972 77.4087L28.4514 78.378C33.3563 79.6219 39.9841 78.6607 41.8255 78.3879L41.6789 77.3987ZM45.6169 76.6C44.1003 77.0037 43.2379 77.1678 41.6789 77.3987L41.8255 78.3879C43.4139 78.1526 44.3141 77.9816 45.8741 77.5663L45.6169 76.6ZM51.1304 74.602C49.0315 75.5496 47.8274 76.0115 45.6169 76.6L45.8741 77.5663C48.1484 76.9609 49.4046 76.4783 51.5419 75.5134L51.1304 74.602ZM56.2546 71.803C54.3388 73.0503 53.2114 73.6624 51.1304 74.602L51.5419 75.5134C53.668 74.5535 54.8404 73.917 56.8002 72.6411L56.2546 71.803ZM61.7187 68.1711C61.3901 67.7942 61.3901 67.7942 61.3901 67.7942C61.3901 67.7943 61.3901 67.7943 61.39 67.7943C61.39 67.7944 61.3899 67.7945 61.3897 67.7946C61.3894 67.7949 61.3889 67.7953 61.3882 67.7959C61.3868 67.7971 61.3847 67.799 61.3819 67.8014C61.3762 67.8063 61.3678 67.8137 61.3566 67.8234C61.3342 67.8428 61.3009 67.8716 61.2576 67.9088C61.1712 67.9833 61.045 68.0915 60.8868 68.2258C60.5702 68.4944 60.1258 68.8671 59.6146 69.2833C58.5884 70.1188 57.3075 71.1175 56.2546 71.803L56.8002 72.6411C57.8999 71.9251 59.2147 70.8984 60.246 70.0588C60.7635 69.6374 61.2133 69.2602 61.5338 68.9882C61.6941 68.8522 61.8221 68.7424 61.9102 68.6665C61.9543 68.6286 61.9884 68.5991 62.0116 68.579C62.0231 68.569 62.032 68.5613 62.038 68.5561C62.041 68.5535 62.0433 68.5515 62.0448 68.5501C62.0456 68.5494 62.0462 68.5489 62.0466 68.5486C62.0468 68.5484 62.047 68.5482 62.0471 68.5481C62.0472 68.5481 62.0472 68.548 62.0472 68.548C62.0473 68.548 62.0473 68.548 61.7187 68.1711ZM67.6965 60.5955C66.3186 62.5923 64.7399 64.3947 63.5022 65.7004C62.8842 66.3525 62.3529 66.8788 61.9768 67.2416C61.7888 67.4229 61.6397 67.5633 61.538 67.6579C61.4871 67.7052 61.4482 67.7411 61.4221 67.7649C61.4091 67.7769 61.3993 67.7858 61.3929 67.7916C61.3897 67.7945 61.3873 67.7967 61.3858 67.798C61.3851 67.7987 61.3845 67.7992 61.3842 67.7995C61.384 67.7996 61.3839 67.7997 61.3839 67.7998C61.3839 67.7998 61.3839 67.7998 61.3838 67.7998C61.3839 67.7998 61.3839 67.7998 61.7187 68.1711C62.0535 68.5424 62.0536 68.5424 62.0537 68.5423C62.0537 68.5423 62.0538 68.5422 62.0539 68.5421C62.0541 68.542 62.0543 68.5418 62.0545 68.5415C62.0551 68.541 62.0559 68.5403 62.0569 68.5395C62.0588 68.5377 62.0616 68.5351 62.0653 68.5318C62.0727 68.5251 62.0834 68.5153 62.0974 68.5025C62.1254 68.4769 62.1663 68.4392 62.2192 68.39C62.325 68.2916 62.4785 68.1471 62.6711 67.9613C63.0562 67.5899 63.5982 67.0528 64.228 66.3883C65.4862 65.061 67.1021 63.2175 68.5195 61.1634L67.6965 60.5955ZM72.8138 49.4171C72.2627 51.6516 70.4511 56.6035 67.6965 60.5955L68.5195 61.1634C71.3555 57.0535 73.2104 51.985 73.7847 49.6566L72.8138 49.4171ZM73.5467 45.0737C73.3515 46.7082 73.2285 47.736 72.8138 49.4171L73.7847 49.6566C74.215 47.912 74.3437 46.8326 74.5397 45.1923L73.5467 45.0737ZM73.6015 44.6159C73.5825 44.774 73.5643 44.9263 73.5467 45.0737L74.5397 45.1923C74.5573 45.0448 74.5754 44.893 74.5944 44.7355L73.6015 44.6159ZM73.626 44.4132L73.6015 44.6159L74.5944 44.7356L74.6188 44.5329L73.626 44.4132ZM73.6224 44.473V44.473H74.6224V44.473H73.6224ZM73.9973 39.0103C74.022 41.1265 73.8764 42.3365 73.626 44.4131L74.6188 44.5328C74.8699 42.45 75.0228 41.1849 74.9973 38.9986L73.9973 39.0103ZM73.6023 34.2088C73.8509 36.09 73.9754 37.1352 73.9973 39.0103L74.9973 38.9986C74.9747 37.064 74.8441 35.9727 74.5936 34.0778L73.6023 34.2088ZM73.5819 34.0544L73.6023 34.2088L74.5937 34.0778L74.5732 33.9234L73.5819 34.0544ZM73.5894 34.0972L73.5895 34.0973L74.5656 33.8804L74.5656 33.8803L73.5894 34.0972ZM72.8152 29.8125C73.2365 31.441 73.3632 32.3989 73.5818 34.0542L74.5732 33.9233C74.3539 32.2622 74.2208 31.2533 73.7834 29.5621L72.8152 29.8125ZM71.8744 26.8836C72.2462 27.9063 72.5099 28.6323 72.8152 29.8125L73.7834 29.5621C73.4653 28.3326 73.1875 27.5687 72.8142 26.542L71.8744 26.8836ZM71.6307 26.2104C71.7172 26.4512 71.7981 26.6738 71.8744 26.8836L72.8142 26.542C72.7378 26.332 72.6576 26.1112 72.5719 25.8725L71.6307 26.2104ZM71.3443 25.404C71.4329 25.6549 71.527 25.9216 71.6307 26.2104L72.5719 25.8725C72.4692 25.5865 72.3759 25.3223 72.2873 25.0711L71.3443 25.404ZM70.0541 22.2087C70.6495 23.4361 70.9401 24.2589 71.3443 25.404L72.2873 25.0711C71.8815 23.9215 71.5754 23.0536 70.9538 21.7723L70.0541 22.2087ZM67.6951 18.2216C68.7229 19.7264 69.2657 20.5833 70.0541 22.2087L70.9538 21.7723C70.1364 20.087 69.5646 19.1857 68.5209 17.6576L67.6951 18.2216ZM64.1428 13.8185C65.6344 15.4716 66.4519 16.4013 67.6951 18.2216L68.5209 17.6576C67.2396 15.7815 66.3867 14.8126 64.8852 13.1486L64.1428 13.8185ZM61.3194 10.2428C60.9734 10.6038 60.9734 10.6038 60.9734 10.6038C60.9734 10.6038 60.9734 10.6038 60.9734 10.6038C60.9735 10.6039 60.9736 10.6039 60.9737 10.6041C60.9739 10.6043 60.9742 10.6046 60.9747 10.605C60.9756 10.6059 60.977 10.6073 60.9789 10.6091C60.9826 10.6126 60.9882 10.618 60.9956 10.6251C61.0104 10.6393 61.0323 10.6604 61.0606 10.6878C61.1173 10.7425 61.1998 10.8222 61.3025 10.922C61.508 11.1218 61.7943 11.4018 62.1177 11.7229C62.7662 12.3669 63.5568 13.1691 64.1428 13.8185L64.8852 13.1486C64.28 12.4778 63.4732 11.6597 62.8223 11.0133C62.4959 10.6892 62.2069 10.4066 61.9995 10.205C61.8958 10.1042 61.8125 10.0236 61.7549 9.96809C61.7262 9.94034 61.7039 9.91887 61.6887 9.9043C61.6812 9.89702 61.6754 9.89145 61.6714 9.88769C61.6695 9.88581 61.668 9.88438 61.667 9.88341C61.6665 9.88293 61.6661 9.88256 61.6658 9.8823C61.6657 9.88217 61.6656 9.88208 61.6655 9.88201C61.6655 9.88197 61.6655 9.88194 61.6654 9.88192C61.6654 9.8819 61.6654 9.88189 61.3194 10.2428ZM56.6668 7.42919C57.6409 8.02208 58.7215 8.81867 59.5653 9.47324C59.9857 9.79933 60.3443 10.0878 60.5976 10.2947C60.7242 10.398 60.8244 10.4809 60.8927 10.5378C60.9269 10.5662 60.9531 10.5881 60.9706 10.6028C60.9794 10.6102 60.986 10.6157 60.9904 10.6194C60.9925 10.6212 60.9941 10.6226 60.9952 10.6235C60.9957 10.6239 60.9961 10.6242 60.9963 10.6244C60.9964 10.6245 60.9965 10.6246 60.9966 10.6246C60.9966 10.6247 60.9966 10.6247 60.9966 10.6247C60.9966 10.6247 60.9966 10.6247 61.3194 10.2428C61.6422 9.86098 61.6422 9.86096 61.6421 9.86092C61.6421 9.8609 61.642 9.86086 61.642 9.86082C61.6419 9.86073 61.6417 9.86062 61.6416 9.86047C61.6412 9.86017 61.6407 9.85976 61.6401 9.85922C61.6388 9.85814 61.637 9.85658 61.6345 9.85455C61.6297 9.85048 61.6226 9.84451 61.6134 9.83673C61.5948 9.82119 61.5676 9.7984 61.5323 9.76907C61.4618 9.71041 61.3593 9.62556 61.23 9.52006C60.9717 9.30912 60.6065 9.0153 60.1783 8.68311C59.3249 8.02113 58.2093 7.19734 57.1867 6.57497L56.6668 7.42919ZM49.554 3.82085C50.6331 4.25001 54.6935 6.22817 56.6668 7.42919L57.1867 6.57497C55.1667 5.34548 51.056 3.34203 49.9236 2.89164L49.554 3.82085ZM49.492 3.79617L49.554 3.82085L49.9236 2.89164L49.8615 2.86696L49.492 3.79617ZM44.8269 2.22128C46.6866 2.68066 47.6969 3.08218 49.4919 3.79616L49.8615 2.86696C48.0605 2.15059 46.9969 1.72724 45.0667 1.25046L44.8269 2.22128ZM40.7713 1.54764C42.2015 1.71095 43.2439 1.83025 44.8269 2.22128L45.0667 1.25046C43.4171 0.842983 42.3204 0.718031 40.8847 0.554092L40.7713 1.54764ZM39.6954 1.42205C40.0822 1.46896 40.4375 1.50952 40.7713 1.54764L40.8847 0.554091C40.5507 0.515946 40.1987 0.475751 39.8157 0.429323L39.6954 1.42205ZM38.9696 1.33265C39.1975 1.36096 39.4379 1.39084 39.6954 1.42205L39.8157 0.429324C39.5599 0.398311 39.3209 0.368613 39.0929 0.34028L38.9696 1.33265ZM35.3486 1.02039C36.7868 1.0616 37.6804 1.17248 38.9696 1.33265L39.0929 0.34028C37.7993 0.17957 36.866 0.0634624 35.3772 0.0208008L35.3486 1.02039ZM29.0469 1.4203C31.4964 1.0576 32.8832 0.949741 35.3486 1.02039L35.3772 0.0208008C32.8446 -0.0517763 31.3985 0.0611858 28.9004 0.431081L29.0469 1.4203ZM25.1095 2.21891C26.625 1.81377 27.4875 1.65119 29.0469 1.4203L28.9004 0.431081C27.3124 0.666214 26.4114 0.835752 24.8512 1.25284L25.1095 2.21891ZM18.8071 4.61734C21.1989 3.47128 22.5717 2.89734 25.1095 2.21891L24.8512 1.25284C22.2353 1.95215 20.8024 2.55239 18.375 3.71552L18.8071 4.61734ZM13.2838 7.81911C15.3441 6.40173 16.5574 5.69533 18.8071 4.61734L18.375 3.71552C16.0773 4.81652 14.8191 5.54916 12.717 6.99524L13.2838 7.81911ZM10.1344 10.2146C11.2958 9.20176 11.9991 8.7029 13.2838 7.81911L12.717 6.99524C11.4204 7.88729 10.6809 8.41116 9.47717 9.46089L10.1344 10.2146ZM6.61115 13.0785C6.98368 13.412 6.98367 13.412 6.98368 13.412C6.98369 13.412 6.98369 13.412 6.98371 13.4119C6.98375 13.4119 6.98382 13.4118 6.98392 13.4117C6.98411 13.4115 6.98441 13.4112 6.98482 13.4107C6.98565 13.4098 6.98692 13.4084 6.98863 13.4065C6.99204 13.4027 6.99719 13.3969 7.004 13.3894C7.01763 13.3742 7.03791 13.3517 7.06428 13.3226C7.11701 13.2643 7.19403 13.1795 7.29072 13.0741C7.48416 12.8631 7.75597 12.5696 8.06916 12.2401C8.69862 11.5778 9.48398 10.7818 10.1344 10.2146L9.47717 9.46089C8.78967 10.0604 7.97771 10.8848 7.34433 11.5512C7.02611 11.886 6.75012 12.184 6.55361 12.3983C6.45533 12.5055 6.37684 12.5919 6.32281 12.6516C6.29579 12.6814 6.27488 12.7046 6.26066 12.7204C6.25354 12.7283 6.2481 12.7344 6.24441 12.7385C6.24256 12.7406 6.24115 12.7422 6.24018 12.7432C6.2397 12.7438 6.23932 12.7442 6.23906 12.7445C6.23893 12.7446 6.23883 12.7447 6.23876 12.7448C6.23872 12.7449 6.23869 12.7449 6.23867 12.7449C6.23864 12.745 6.23862 12.745 6.61115 13.0785ZM1.10064 22.5374C1.67304 20.6019 3.1239 18.3325 4.46747 16.5152C5.13375 15.614 5.76345 14.8374 6.22651 14.2862C6.45792 14.0108 6.64741 13.792 6.77864 13.6426C6.84426 13.5678 6.89529 13.5104 6.92969 13.472C6.94689 13.4527 6.95994 13.4382 6.96857 13.4287C6.97288 13.4239 6.9761 13.4204 6.97817 13.4181C6.97921 13.4169 6.97997 13.4161 6.98043 13.4156C6.98067 13.4153 6.98083 13.4151 6.98092 13.415C6.98096 13.415 6.98097 13.415 6.98099 13.415C6.98099 13.415 6.98096 13.415 6.61115 13.0785C6.24134 12.742 6.24128 12.742 6.2412 12.7421C6.24115 12.7422 6.24105 12.7423 6.24095 12.7424C6.24075 12.7426 6.24047 12.7429 6.24012 12.7433C6.23943 12.7441 6.23844 12.7452 6.23717 12.7466C6.23463 12.7494 6.23096 12.7534 6.22617 12.7587C6.21659 12.7693 6.20258 12.7849 6.18439 12.8052C6.14802 12.8459 6.09493 12.9056 6.02717 12.9828C5.89167 13.1371 5.69742 13.3614 5.46086 13.643C4.988 14.2058 4.34483 14.999 3.66337 15.9207C2.31146 17.7493 0.767323 20.1384 0.141696 22.2538L1.10064 22.5374ZM0.621176 26.0414C1.11869 25.9917 1.11869 25.9917 1.11869 25.9917C1.11869 25.9917 1.11869 25.9917 1.11869 25.9917C1.11869 25.9916 1.11868 25.9915 1.11867 25.9914C1.11864 25.9912 1.1186 25.9908 1.11855 25.9902C1.11843 25.9891 1.11826 25.9873 1.11802 25.9849C1.11755 25.9801 1.11684 25.9727 1.11591 25.963C1.11405 25.9436 1.11133 25.9147 1.10795 25.8774C1.10118 25.8028 1.09177 25.6948 1.08129 25.5621C1.06031 25.2963 1.0352 24.9332 1.01849 24.5428C1.00174 24.1512 0.993702 23.7382 1.0059 23.3707C1.01848 22.9914 1.05176 22.7027 1.10064 22.5374L0.141696 22.2538C0.0542818 22.5494 0.0194118 22.9468 0.0064466 23.3375C-0.00691193 23.7401 0.00208998 24.1808 0.0194094 24.5855C0.0367757 24.9913 0.0627787 25.3669 0.0843931 25.6407C0.0952133 25.7778 0.104966 25.8898 0.112041 25.9678C0.115579 26.0068 0.11845 26.0373 0.120453 26.0582C0.121455 26.0687 0.12224 26.0768 0.122783 26.0823C0.123054 26.0851 0.123265 26.0872 0.123412 26.0887C0.123486 26.0895 0.123544 26.0901 0.123586 26.0905C0.123606 26.0907 0.123623 26.0909 0.123636 26.091C0.123642 26.091 0.123648 26.0911 0.123651 26.0911C0.123657 26.0912 0.123661 26.0912 0.621176 26.0414ZM1.8202 27.3623C1.64554 27.1288 1.46456 26.768 1.3202 26.4393C1.25024 26.28 1.19269 26.1371 1.15271 26.0342C1.13276 25.9829 1.11729 25.9418 1.10696 25.914C1.10179 25.9001 1.09792 25.8895 1.09541 25.8826C1.09416 25.8792 1.09325 25.8766 1.0927 25.8751C1.09242 25.8743 1.09223 25.8738 1.09213 25.8735C1.09208 25.8734 1.09205 25.8733 1.09205 25.8733C1.09205 25.8733 1.09205 25.8733 1.09206 25.8733C1.09206 25.8733 1.09207 25.8734 1.09208 25.8734C1.09209 25.8734 1.0921 25.8734 0.621176 26.0414C0.15025 26.2095 0.150267 26.2095 0.150285 26.2096C0.150293 26.2096 0.150312 26.2096 0.150328 26.2097C0.15036 26.2098 0.150398 26.2099 0.150441 26.21C0.150528 26.2102 0.150638 26.2105 0.150771 26.2109C0.151037 26.2117 0.151395 26.2127 0.151844 26.2139C0.15274 26.2164 0.154 26.2199 0.155613 26.2243C0.158837 26.2332 0.163474 26.2458 0.169443 26.2619C0.181375 26.2941 0.198661 26.34 0.220647 26.3965C0.264534 26.5094 0.327593 26.666 0.404599 26.8413C0.554167 27.1819 0.772517 27.6312 1.01948 27.9613L1.8202 27.3623ZM7.63311 28.8142C5.41793 29.6474 3.19596 29.2012 1.8202 27.3623L1.01948 27.9613C2.71315 30.2252 5.43977 30.7076 7.98517 29.7502L7.63311 28.8142Z" fill="#EEEEEF"/>
<line y1="-1.5" x2="24.1333" y2="-1.5" transform="matrix(0.702023 -0.712154 0.702023 0.712154 40.433 56.4028)" stroke="#EEEEEF" stroke-width="3"/>
<line y1="-1.5" x2="24.1333" y2="-1.5" transform="matrix(0.702023 0.712154 -0.702023 0.712154 38.8358 39.2161)" stroke="#EEEEEF" stroke-width="3"/>
</svg>
